<svg width="35" height="27" viewBox="0 0 35 27" fill="none" xmlns="http://www.w3.org/2000/svg">
<path d="M0.945068 1.88372V17.3105C0.945068 18.2292 1.68979 18.9739 2.60846 18.9739H31.1628C32.0815 18.9739 32.8262 18.2292 32.8262 17.3105V4.44671C32.8262 3.52804 32.0815 2.78332 31.1628 2.78332H16.039C15.4628 2.78332 14.9309 2.48202 14.5638 2.03782C13.9386 1.28114 12.8418 0.220322 11.6069 0.220322H2.60587C1.68721 0.220322 0.945068 0.965049 0.945068 1.88372Z" fill="#C5C5C5"/>
<g filter="url(#filter0_d_32_2323)">
<path d="M32.8264 5.63739V22.9395C32.8264 23.8582 32.0817 24.6029 31.163 24.6029H2.60866C1.69 24.6029 0.945271 23.8582 0.945271 22.9395V7.35467C0.945271 6.436 1.68751 5.69127 2.60618 5.69127H11.0437C13.8813 5.69127 13.4849 3.97385 15.4253 3.97394C20.7228 3.97419 27.9502 3.97406 31.1661 3.97398C32.0847 3.97396 32.8264 4.7187 32.8264 5.63739Z" fill="#E8E8E8"/>
</g>
<g clip-path="url(#clip0_32_2323)">
<path d="M26.1319 27.2141C28.3302 27.2141 30.4384 26.3408 31.9927 24.7865C33.5471 23.2321 34.4204 21.1239 34.4204 18.9257C34.4204 16.7274 33.5471 14.6192 31.9927 13.0648C30.4384 11.5105 28.3302 10.6372 26.1319 10.6372C23.9337 10.6372 21.8255 11.5105 20.2711 13.0648C18.7167 14.6192 17.8435 16.7274 17.8435 18.9257C17.8435 21.1239 18.7167 23.2321 20.2711 24.7865C21.8255 26.3408 23.9337 27.2141 26.1319 27.2141ZM23.5094 16.3031C23.8138 15.9988 24.3059 15.9988 24.607 16.3031L26.1287 17.8248L27.6504 16.3031C27.9547 15.9988 28.4469 15.9988 28.748 16.3031C29.0491 16.6075 29.0523 17.0996 28.748 17.4007L27.2263 18.9224L28.748 20.4441C29.0523 20.7485 29.0523 21.2406 28.748 21.5417C28.4436 21.8428 27.9515 21.846 27.6504 21.5417L26.1287 20.02L24.607 21.5417C24.3027 21.846 23.8105 21.846 23.5094 21.5417C23.2083 21.2373 23.2051 20.7452 23.5094 20.4441L25.0311 18.9224L23.5094 17.4007C23.2051 17.0964 23.2051 16.6042 23.5094 16.3031Z" fill="#C5C5C5"/>
</g>
<defs>
<filter id="filter0_d_32_2323" x="0.945312" y="3.97394" width="33.7565" height="22.5043" filterUnits="userSpaceOnUse" color-interpolation-filters="sRGB">
<feFlood flood-opacity="0" result="BackgroundImageFix"/>
<feColorMatrix in="SourceAlpha" type="matrix" values="0 0 0 0 0 0 0 0 0 0 0 0 0 0 0 0 0 0 127 0" result="hardAlpha"/>
<feOffset dx="0.937681" dy="0.937681"/>
<feGaussianBlur stdDeviation="0.46884"/>
<feComposite in2="hardAlpha" operator="out"/>
<feColorMatrix type="matrix" values="0 0 0 0 0 0 0 0 0 0 0 0 0 0 0 0 0 0 0.25 0"/>
<feBlend mode="normal" in2="BackgroundImageFix" result="effect1_dropShadow_32_2323"/>
<feBlend mode="normal" in="SourceGraphic" in2="effect1_dropShadow_32_2323" result="shape"/>
</filter>
<clipPath id="clip0_32_2323">
<rect x="1.00049" y="4.01204" width="31.7708" height="20.2291" rx="1.58022" fill="white"/>
</clipPath>
</defs>
</svg>
