<svg width="15" height="15" viewBox="0 0 15 15" fill="none" xmlns="http://www.w3.org/2000/svg">
<g clip-path="url(#clip0_32_3232)">
<path d="M14.9999 7.03125C14.9999 10.3975 11.6425 13.125 7.49989 13.125C6.41298 13.125 5.38173 12.9375 4.45009 12.6006C4.10145 12.8555 3.5331 13.2041 2.85927 13.4971C2.15614 13.8018 1.30946 14.0625 0.468642 14.0625C0.278213 14.0625 0.108291 13.9482 0.0350485 13.7725C-0.0381937 13.5967 0.00282192 13.3975 0.134658 13.2627L0.143447 13.2539C0.152236 13.2451 0.163955 13.2334 0.181533 13.2129C0.213759 13.1777 0.263564 13.1221 0.325088 13.0459C0.445205 12.8994 0.606338 12.6826 0.7704 12.4131C1.06337 11.9268 1.34169 11.2881 1.39735 10.5703C0.518447 9.57422 -0.000107761 8.35254 -0.000107761 7.03125C-0.000107761 3.66504 3.35731 0.9375 7.49989 0.9375C11.6425 0.9375 14.9999 3.66504 14.9999 7.03125Z" fill="#00405B"/>
</g>
<defs>
<clipPath id="clip0_32_3232">
<rect width="15" height="15" fill="white"/>
</clipPath>
</defs>
</svg>
